<svg xmlns="http://www.w3.org/2000/svg" class="font" viewBox="0 0 207.789 60">
  <path d="M46.427 30.167V36.661q0 .402-.115.804v22.469h-12.47v-3.046q-2.413 1.437-5.114 2.299-2.7.804-5.516.804h-.058q-4.77 0-8.964-1.839-4.252-1.839-7.528-5.286-3.16-3.39-4.884-7.643-1.724-4.195-1.782-8.85V23.962q0-4.827 1.724-9.079Q3.444 10.63 6.662 7.24q3.276-3.448 7.528-5.345Q18.385.057 23.154.057h.058q4.712 0 8.907 1.838 4.252 1.897 7.585 5.345 3.218 3.447 4.999 7.815 1.724 4.31 1.724 9.136H32.866q0-2.183-.747-4.08-.748-1.953-2.07-3.39-1.32-1.437-3.102-2.299-1.782-.862-3.793-.862t-3.735.862q-1.724.862-3.045 2.299-1.322 1.437-2.127 3.39-.747 1.897-.747 4.08v11.665q0 2.184.747 4.138.805 1.896 2.127 3.333 1.321 1.494 3.045 2.298 1.724.862 3.735.862 2.356 0 4.253-1.034 1.838-1.035 3.217-2.816h-7.527v-12.47h23.33zM99.408 0v36.03q-.057 4.77-1.781 9.022-1.667 4.252-4.884 7.642-3.276 3.505-7.528 5.402-4.195 1.839-8.964 1.839h-.058q-4.712 0-8.907-1.84-4.252-1.896-7.585-5.4-3.16-3.391-4.884-7.643-1.724-4.253-1.84-9.022V-.001H66.54v35.8q0 2.183.747 4.08.747 1.954 2.069 3.39 1.322 1.437 3.103 2.299 1.781.862 3.793.862 2.01 0 3.735-.862 1.724-.862 3.045-2.299 1.322-1.436 2.126-3.39.747-1.897.747-4.08v-35.8h13.504zm44.19 59.935l-8.045-23.158h-11.09l-8.045 23.158h-14.596L122.566.057h14.826l20.744 59.877h-14.538zm41.029-13.447q2.01 0 3.735-.862 1.724-.804 3.045-2.298 1.322-1.437 2.07-3.333.804-1.954.804-4.138h13.504q0 4.827-1.667 9.195-1.724 4.31-5 7.815-3.332 3.447-7.527 5.286-4.252 1.839-8.964 1.839h-.115q-4.712 0-8.907-1.839t-7.585-5.286q-3.103-3.39-4.827-7.643-1.724-4.195-1.839-8.85V23.962q.115-4.827 1.781-9.079 1.667-4.252 4.885-7.642 3.39-3.448 7.585-5.345Q179.8.057 184.512.057h.115q4.712 0 8.964 1.838 4.195 1.897 7.528 5.345 3.275 3.447 5 7.815 1.666 4.31 1.666 9.136H194.28q0-2.183-.805-4.08-.747-1.953-2.069-3.39-1.321-1.437-3.045-2.299-1.724-.862-3.735-.862-2.012 0-3.793.862-1.781.862-3.103 2.299-1.322 1.437-2.069 3.39-.804 1.897-.804 4.08v11.665q0 2.184.804 4.138.747 1.896 2.07 3.333 1.32 1.494 3.102 2.298 1.781.862 3.793.862z"/>
</svg>